<svg width="16" height="16" viewBox="0 0 16 16" fill="none" xmlns="http://www.w3.org/2000/svg">
<g clip-path="url(#clip0_422_240)">
<path d="M8.00007 0C3.58233 0 0 3.66763 0 8.19207C0 11.8115 2.29226 14.8823 5.47093 15.9655C5.87075 16.0413 6.01754 15.7878 6.01754 15.5714C6.01754 15.3761 6.01012 14.7307 6.00667 14.0462C3.78105 14.5418 3.31141 13.0797 3.31141 13.0797C2.9475 12.1328 2.42315 11.881 2.42315 11.881C1.6973 11.3726 2.47786 11.383 2.47786 11.383C3.28121 11.4408 3.70421 12.2272 3.70421 12.2272C4.41774 13.4796 5.57572 13.1175 6.03224 12.9082C6.10404 12.3787 6.31137 12.0173 6.54016 11.8128C4.76324 11.6056 2.8953 10.9032 2.8953 7.76421C2.8953 6.86982 3.20782 6.13903 3.71958 5.56534C3.63651 5.359 3.36268 4.5258 3.79708 3.3974C3.79708 3.3974 4.46887 3.17723 5.99766 4.23712C6.63581 4.05561 7.32019 3.96458 8.00007 3.96146C8.67994 3.96458 9.36485 4.05561 10.0042 4.23712C11.5311 3.17723 12.202 3.3974 12.202 3.3974C12.6375 4.5258 12.3635 5.359 12.2804 5.56534C12.7934 6.13903 13.1038 6.86982 13.1038 7.76421C13.1038 10.9106 11.2323 11.6034 9.45083 11.8062C9.73778 12.0605 9.99346 12.559 9.99346 13.3233C9.99346 14.4194 9.98419 15.3016 9.98419 15.5714C9.98419 15.7894 10.1282 16.0449 10.5337 15.9644C13.7107 14.88 16 11.8103 16 8.19207C16 3.66763 12.4182 0 8.00007 0ZM2.99628 11.6698C2.97867 11.7105 2.91614 11.7227 2.85917 11.6947C2.80115 11.668 2.76856 11.6125 2.78737 11.5717C2.80459 11.5298 2.86725 11.5181 2.92514 11.5462C2.9833 11.5729 3.01642 11.6289 2.99628 11.6698ZM3.3898 12.0293C3.35165 12.0656 3.27706 12.0487 3.22645 11.9915C3.17413 11.9344 3.16432 11.858 3.20301 11.8212C3.24235 11.785 3.31468 11.802 3.36715 11.8591C3.41947 11.9169 3.42968 11.9927 3.3898 12.0293ZM3.65977 12.4894C3.61075 12.5242 3.5306 12.4915 3.48105 12.4187C3.43204 12.3458 3.43204 12.2585 3.48211 12.2235C3.53179 12.1885 3.61075 12.22 3.66096 12.2923C3.70984 12.3663 3.70984 12.4537 3.65977 12.4894ZM4.11633 13.0222C4.07248 13.0717 3.97909 13.0584 3.91073 12.9908C3.84078 12.9248 3.82131 12.831 3.86529 12.7815C3.90967 12.7319 4.0036 12.7458 4.07248 12.8128C4.1419 12.8788 4.1631 12.9732 4.11633 13.0222ZM4.70641 13.202C4.68707 13.2662 4.59711 13.2954 4.5065 13.2681C4.41602 13.24 4.3568 13.1649 4.37508 13.1C4.39389 13.0354 4.48424 13.005 4.57552 13.0342C4.66587 13.0622 4.72522 13.1368 4.70641 13.202ZM5.37793 13.2783C5.38019 13.3459 5.30335 13.4019 5.20823 13.4031C5.11258 13.4053 5.03521 13.3506 5.03415 13.2841C5.03415 13.2159 5.10927 13.1604 5.20492 13.1588C5.30004 13.1569 5.37793 13.2112 5.37793 13.2783ZM6.03763 13.2524C6.04903 13.3183 5.98292 13.386 5.88846 13.4041C5.7956 13.4214 5.70962 13.3808 5.69783 13.3154C5.6863 13.2478 5.7536 13.1801 5.84634 13.1626C5.94093 13.1458 6.02558 13.1854 6.03763 13.2524Z" fill="#6366F1"/>
</g>
<defs>
<clipPath id="clip0_422_240">
<rect width="16" height="16" fill="white"/>
</clipPath>
</defs>
</svg>
